# Blender v2.79 (sub 0) OBJ File: 'goat.blend'
# www.blender.org
mtllib goat.mtl
o Cube.001_Cube.002
v 0.800000 -0.769642 -0.859367
v 0.800000 -0.769642 2.140633
v -0.800000 -0.769642 2.140632
v -0.800000 -0.769642 -0.859368
v 0.800000 0.856422 -0.859367
v 0.799999 0.856422 2.140633
v -0.800000 0.856422 2.140632
v -0.800000 0.856422 -0.859367
v 0.129606 0.479357 2.009996
v 0.129606 0.276513 2.592913
v -0.129607 0.276513 2.592913
v -0.129607 0.479357 2.009996
v 0.129606 0.724171 2.095187
v 0.129606 0.521327 2.678104
v -0.129607 0.521327 2.678104
v -0.129607 0.724171 2.095187
v 0.374873 0.793445 -1.817773
v 0.419323 -0.176226 -0.846088
v -0.419324 -0.176226 -0.846088
v -0.374578 0.793445 -1.817773
v 0.374874 1.408436 -1.389446
v 0.419323 0.511958 -0.366784
v -0.419324 0.511958 -0.366784
v -0.374578 1.408436 -1.389446
v 0.250000 -2.198880 2.099852
v 0.250000 -2.198880 1.599852
v 0.750000 -2.198880 1.599852
v 0.750000 -2.198880 2.099852
v 0.250000 -0.731763 2.099852
v 0.250000 -0.731763 1.599852
v 0.750000 -0.731763 1.599852
v 0.750000 -0.731763 2.099852
v -0.750000 -2.198880 2.099852
v -0.750000 -2.198880 1.599852
v -0.250000 -2.198880 1.599852
v -0.250000 -2.198880 2.099852
v -0.750000 -0.731763 2.099852
v -0.750000 -0.731763 1.599852
v -0.250000 -0.731763 1.599852
v -0.250000 -0.731763 2.099852
v 0.250000 -2.198880 -0.300148
v 0.250000 -2.198880 -0.800148
v 0.750000 -2.198880 -0.800148
v 0.750000 -2.198880 -0.300148
v 0.250000 -0.731763 -0.300148
v 0.250000 -0.731763 -0.800148
v 0.750000 -0.731763 -0.800148
v 0.750000 -0.731763 -0.300148
v -0.750000 -2.198880 -0.300148
v -0.750000 -2.198880 -0.800148
v -0.250000 -2.198880 -0.800148
v -0.250000 -2.198880 -0.300148
v -0.750000 -0.731763 -0.300148
v -0.750000 -0.731763 -0.800148
v -0.250000 -0.731763 -0.800148
v -0.250000 -0.731763 -0.300148
v 0.441109 1.748287 -1.404420
v 0.441109 1.578022 -2.269750
v -0.440814 1.578022 -2.269750
v -0.440814 1.748287 -1.404420
v 0.441109 0.882956 -1.234155
v 0.441109 0.712691 -2.099485
v -0.440814 0.712691 -2.099485
v -0.440814 0.882956 -1.234155
v 0.323809 1.338976 -2.678104
v -0.323514 1.338976 -2.678104
v 0.323809 0.703831 -2.553131
v -0.323514 0.703831 -2.553131
v 0.135131 0.709617 -2.256875
v -0.134836 0.709617 -2.256875
v 0.099224 0.706905 -2.395741
v -0.098929 0.706905 -2.395741
v 0.135131 0.675552 -2.259722
v -0.134836 0.675552 -2.259722
v 0.099224 0.612490 -2.373052
v -0.098929 0.612490 -2.373052
v 0.204382 1.660684 -1.427307
v 0.204382 1.613713 -1.643692
v 0.425807 1.613713 -1.643692
v 0.425807 1.660684 -1.427307
v 0.204382 1.794646 -1.456925
v 0.204382 1.747675 -1.673311
v 0.425807 1.747675 -1.673311
v 0.425807 1.794646 -1.456925
v 0.217689 1.939918 -1.450194
v 0.217689 1.986200 -1.639428
v 0.412500 1.986200 -1.639428
v 0.412500 1.939918 -1.450194
v 0.255024 2.115925 -1.391654
v 0.255024 2.198880 -1.478558
v 0.375165 2.198880 -1.478558
v 0.375165 2.115925 -1.391654
v -0.421168 1.660684 -1.427307
v -0.421168 1.613713 -1.643692
v -0.199744 1.613713 -1.643692
v -0.199744 1.660684 -1.427307
v -0.421168 1.794646 -1.456925
v -0.421168 1.747675 -1.673311
v -0.199744 1.747675 -1.673311
v -0.199744 1.794646 -1.456925
v -0.407862 1.939918 -1.450194
v -0.407862 1.986200 -1.639428
v -0.213050 1.986200 -1.639428
v -0.213050 1.939918 -1.450194
v -0.370526 2.115925 -1.391654
v -0.370526 2.198880 -1.478558
v -0.250385 2.198880 -1.478558
v -0.250385 2.115925 -1.391654
vt 0.656250 0.000000
vt 0.656250 0.398438
vt 0.445312 0.398438
vt 0.445312 0.000000
vt 0.437500 0.398438
vt 0.226562 0.398438
vt 0.226562 0.000000
vt 0.437500 0.000000
vt 0.218750 0.398438
vt 0.000000 0.398438
vt 0.000000 0.000000
vt 0.218750 0.000000
vt 0.000000 0.625000
vt 0.000000 0.406250
vt 0.210938 0.406250
vt 0.210938 0.625000
vt 0.218750 0.398438
vt 0.000000 0.398438
vt 0.000000 0.000000
vt 0.218750 0.000000
vt 0.210938 0.406250
vt 0.210938 0.625000
vt 0.000000 0.625000
vt 0.000000 0.406250
vt 0.920822 0.473112
vt 0.920822 0.551929
vt 0.886368 0.551929
vt 0.886368 0.473112
vt 0.487929 0.991330
vt 0.453474 0.991330
vt 0.453474 0.914546
vt 0.487929 0.914546
vt 0.718750 0.617188
vt 0.687500 0.617188
vt 0.687500 0.531250
vt 0.718750 0.531250
vt 0.912675 0.349133
vt 0.946038 0.349133
vt 0.946038 0.383890
vt 0.912675 0.383890
vt 0.856602 0.602241
vt 0.822147 0.602239
vt 0.822147 0.519514
vt 0.856602 0.519516
vt 0.125000 0.953125
vt 0.156250 0.953125
vt 0.156250 0.984375
vt 0.125000 0.984375
vt 0.679688 0.148438
vt 0.671875 0.007812
vt 0.789062 0.007812
vt 0.781250 0.148438
vt 0.796875 0.507812
vt 0.703125 0.507812
vt 0.695312 0.375000
vt 0.804688 0.375000
vt 0.398438 0.429688
vt 0.500000 0.414062
vt 0.500000 0.601562
vt 0.390625 0.609375
vt 0.164062 0.992188
vt 0.125000 0.992188
vt 0.125000 0.953125
vt 0.164062 0.953125
vt 0.515625 0.414062
vt 0.625000 0.421875
vt 0.625000 0.609375
vt 0.531250 0.593750
vt 0.257812 0.617188
vt 0.257812 0.531250
vt 0.351562 0.531250
vt 0.351562 0.617188
vt 0.109375 0.921875
vt 0.007812 0.921875
vt 0.007812 0.632812
vt 0.109375 0.632812
vt 0.093750 0.921875
vt 0.007812 0.921875
vt 0.007812 0.632812
vt 0.093750 0.632812
vt 0.093750 0.921875
vt 0.007812 0.921875
vt 0.007812 0.632812
vt 0.093750 0.632812
vt 0.109375 0.921875
vt 0.007812 0.921875
vt 0.007812 0.632812
vt 0.109375 0.632812
vt 0.062500 1.000000
vt 0.000000 1.000000
vt 0.000000 0.937500
vt 0.062500 0.937500
vt 0.933615 0.455284
vt 1.000000 0.455284
vt 1.000000 0.522327
vt 0.933615 0.522327
vt 0.109375 0.921875
vt 0.007812 0.921875
vt 0.007812 0.632812
vt 0.109375 0.632812
vt 0.109375 0.921875
vt 0.007812 0.921875
vt 0.007812 0.632812
vt 0.109375 0.632812
vt 0.093750 0.921875
vt 0.007812 0.921875
vt 0.007812 0.632812
vt 0.093750 0.632812
vt 0.109375 0.921875
vt 0.007812 0.921875
vt 0.007812 0.632812
vt 0.109375 0.632812
vt 0.062500 1.000000
vt 0.000000 1.000000
vt 0.000000 0.937500
vt 0.062500 0.937500
vt 0.933615 0.388240
vt 1.000000 0.388240
vt 1.000000 0.455284
vt 0.933615 0.455284
vt 0.109375 0.921875
vt 0.007812 0.921875
vt 0.007812 0.632812
vt 0.109375 0.632812
vt 0.109375 0.921875
vt 0.007812 0.921875
vt 0.007812 0.632812
vt 0.109375 0.632812
vt 0.109375 0.921875
vt 0.007812 0.921875
vt 0.007812 0.632812
vt 0.109375 0.632812
vt 0.109375 0.921875
vt 0.007812 0.921875
vt 0.007812 0.632812
vt 0.109375 0.632812
vt 0.007812 0.937500
vt 0.062500 0.937500
vt 0.062500 0.992188
vt 0.007812 0.992188
vt 0.333345 0.928629
vt 0.399730 0.928629
vt 0.399730 0.995673
vt 0.333345 0.995673
vt 0.109375 0.921875
vt 0.007812 0.921875
vt 0.007812 0.632812
vt 0.109375 0.632812
vt 0.093750 0.921875
vt 0.007812 0.921875
vt 0.007812 0.632812
vt 0.093750 0.632812
vt 0.093750 0.921875
vt 0.007812 0.921875
vt 0.007812 0.632812
vt 0.093750 0.632812
vt 0.109375 0.921875
vt 0.007812 0.921875
vt 0.007812 0.632812
vt 0.109375 0.632812
vt 0.062500 1.000000
vt 0.000000 1.000000
vt 0.000000 0.937500
vt 0.062500 0.937500
vt 0.000000 0.937500
vt 0.062500 0.937500
vt 0.062500 1.000000
vt 0.000000 1.000000
vt 0.695312 0.375000
vt 0.695312 0.257812
vt 0.812500 0.257812
vt 0.812500 0.375000
vt 0.140625 0.914062
vt 0.140625 0.804688
vt 0.257812 0.804688
vt 0.257812 0.914062
vt 0.781250 0.812500
vt 0.953125 0.812500
vt 0.953125 0.648438
vt 0.781250 0.648438
vt 0.476562 0.812500
vt 0.304688 0.812500
vt 0.304688 0.648438
vt 0.476562 0.648438
vt 0.687500 0.671875
vt 0.687500 0.789062
vt 0.640625 0.867188
vt 0.640625 0.984375
vt 0.523438 0.984375
vt 0.523438 0.867188
vt 0.687500 0.789062
vt 0.570312 0.789062
vt 0.570312 0.671875
vt 0.687500 0.671875
vt 0.710938 0.203125
vt 0.796875 0.203125
vt 0.476562 0.648438
vt 0.476562 0.812500
vt 0.570312 0.789062
vt 0.570312 0.671875
vt 0.156250 0.742188
vt 0.187500 0.757812
vt 0.179688 0.781250
vt 0.400360 0.934319
vt 0.418070 0.928629
vt 0.418300 0.960246
vt 0.399730 0.960246
vt 0.242188 0.742188
vt 0.218750 0.781250
vt 0.210938 0.757812
vt 0.234375 0.945312
vt 0.234375 0.976562
vt 0.218750 0.976562
vt 0.218750 0.945312
vt 0.234375 0.976562
vt 0.218750 0.968750
vt 0.210938 0.945312
vt 0.234375 0.945312
vt 0.687500 0.578125
vt 0.710938 0.578125
vt 0.710938 0.609375
vt 0.687500 0.609375
vt 0.710938 0.539062
vt 0.710938 0.578125
vt 0.687500 0.578125
vt 0.687500 0.539062
vt 0.921875 0.945312
vt 0.929688 0.976562
vt 0.984375 0.968750
vt 0.968750 0.914062
vt 0.929688 0.828125
vt 0.929688 0.882812
vt 0.984375 0.882812
vt 0.984375 0.828125
vt 0.929688 0.992188
vt 0.906250 0.945312
vt 0.960938 0.929688
vt 0.968750 0.968750
vt 0.921875 0.882812
vt 0.921875 0.828125
vt 0.968750 0.828125
vt 0.968750 0.882812
vt 0.872933 0.354002
vt 0.901530 0.354002
vt 0.901530 0.383692
vt 0.872933 0.383692
vt 0.843750 0.882812
vt 0.843750 0.828125
vt 0.773438 0.867188
vt 0.773438 0.843750
vt 0.835938 0.992188
vt 0.843750 0.953125
vt 0.843750 0.828125
vt 0.843750 0.882812
vt 0.859375 0.945312
vt 0.843750 0.992188
vt 0.843750 0.914062
vt 0.843750 0.906250
vt 0.867188 0.906250
vt 0.867188 0.914062
vt 0.742188 0.945312
vt 0.773438 0.929688
vt 0.773438 0.843750
vt 0.773438 0.867188
vt 0.781250 0.914062
vt 0.757812 0.945312
vt 0.921875 0.945312
vt 0.945312 0.976562
vt 0.984375 0.968750
vt 0.968750 0.914062
vt 0.921875 0.882812
vt 0.921875 0.828125
vt 0.968750 0.828125
vt 0.968750 0.882812
vt 0.929688 0.976562
vt 0.921875 0.929688
vt 0.968750 0.914062
vt 0.984375 0.968750
vt 0.906250 0.882812
vt 0.906250 0.828125
vt 0.960938 0.828125
vt 0.960938 0.882812
vt 0.125000 0.960938
vt 0.156250 0.960938
vt 0.156250 0.992188
vt 0.125000 0.992188
vt 0.843750 0.882812
vt 0.843750 0.828125
vt 0.773438 0.867188
vt 0.773438 0.843750
vt 0.843750 0.976562
vt 0.843750 0.945312
vt 0.835938 0.882812
vt 0.835938 0.828125
vt 0.859375 0.945312
vt 0.843750 0.992188
vt 0.843750 0.914062
vt 0.843750 0.906250
vt 0.867188 0.906250
vt 0.867188 0.914062
vt 0.757812 0.945312
vt 0.773438 0.914062
vt 0.757812 0.867188
vt 0.757812 0.843750
vt 0.781250 0.914062
vt 0.757812 0.945312
vn 0.0000 -1.0000 0.0000
vn 0.0000 1.0000 0.0000
vn 1.0000 0.0000 0.0000
vn -0.0000 -0.0000 1.0000
vn -1.0000 -0.0000 -0.0000
vn 0.0000 0.0000 -1.0000
vn 0.0000 -0.9445 -0.3287
vn 0.0000 0.9445 0.3287
vn 0.0000 -0.3287 0.9445
vn 0.0000 0.3287 -0.9445
vn 0.0000 -0.7078 -0.7064
vn 0.0000 0.7520 0.6592
vn 0.9995 0.0188 -0.0270
vn -0.0000 -0.5715 0.8206
vn -0.9995 0.0189 -0.0272
vn 0.0000 0.5715 -0.8206
vn 0.0000 0.9812 -0.1931
vn 0.0000 -0.9812 0.1931
vn 0.9672 -0.0490 -0.2491
vn 0.0000 0.1931 0.9812
vn 0.0000 -0.1931 -0.9812
vn 0.0000 0.8630 -0.5052
vn -0.9672 -0.0490 -0.2491
vn 0.0000 -0.9998 0.0195
vn -0.9637 -0.0407 -0.2638
vn 0.0000 -0.8738 0.4862
vn 0.9637 -0.0407 -0.2638
vn 0.0000 -0.2337 -0.9723
vn 0.0000 -0.0833 0.9965
vn 0.0000 -0.2159 -0.9764
vn 0.0000 0.2159 0.9764
vn 0.0000 -0.9772 0.2121
vn 0.0000 -0.0463 0.9989
vn 0.0000 -0.3156 0.9489
vn 0.9976 0.0692 -0.0001
vn 0.0000 0.1406 -0.9901
vn -0.9976 0.0692 -0.0001
vn 0.0000 0.7234 0.6905
vn 0.9862 0.1499 0.0701
vn 0.0000 0.6033 -0.7975
vn -0.9862 0.1499 0.0701
usemtl Material.002
s off
f 1/1/1 2/2/1 3/3/1 4/4/1
f 5/5/2 8/6/2 7/7/2 6/8/2
f 1/9/3 5/10/3 6/11/3 2/12/3
f 2/13/4 6/14/4 7/15/4 3/16/4
f 3/17/5 7/18/5 8/19/5 4/20/5
f 5/21/6 1/22/6 4/23/6 8/24/6
f 9/25/7 10/26/7 11/27/7 12/28/7
f 13/29/8 16/30/8 15/31/8 14/32/8
f 9/33/3 13/34/3 14/35/3 10/36/3
f 10/37/9 14/38/9 15/39/9 11/40/9
f 11/41/5 15/42/5 16/43/5 12/44/5
f 13/45/10 9/46/10 12/47/10 16/48/10
f 17/49/11 18/50/11 19/51/11 20/52/11
f 21/53/12 24/54/12 23/55/12 22/56/12
f 17/57/13 21/58/13 22/59/13 18/60/13
f 18/61/14 22/62/14 23/63/14 19/64/14
f 19/65/15 23/66/15 24/67/15 20/68/15
f 21/69/16 17/70/16 20/71/16 24/72/16
f 29/73/5 30/74/5 26/75/5 25/76/5
f 30/77/6 31/78/6 27/79/6 26/80/6
f 31/81/3 32/82/3 28/83/3 27/84/3
f 32/85/4 29/86/4 25/87/4 28/88/4
f 25/89/1 26/90/1 27/91/1 28/92/1
f 32/93/2 31/94/2 30/95/2 29/96/2
f 37/97/5 38/98/5 34/99/5 33/100/5
f 38/101/6 39/102/6 35/103/6 34/104/6
f 39/105/3 40/106/3 36/107/3 35/108/3
f 40/109/4 37/110/4 33/111/4 36/112/4
f 33/113/1 34/114/1 35/115/1 36/116/1
f 40/117/2 39/118/2 38/119/2 37/120/2
f 45/121/5 46/122/5 42/123/5 41/124/5
f 46/125/6 47/126/6 43/127/6 42/128/6
f 47/129/3 48/130/3 44/131/3 43/132/3
f 48/133/4 45/134/4 41/135/4 44/136/4
f 41/137/1 42/138/1 43/139/1 44/140/1
f 48/141/2 47/142/2 46/143/2 45/144/2
f 53/145/5 54/146/5 50/147/5 49/148/5
f 54/149/6 55/150/6 51/151/6 50/152/6
f 55/153/3 56/154/3 52/155/3 51/156/3
f 56/157/4 53/158/4 49/159/4 52/160/4
f 49/161/1 50/162/1 51/163/1 52/164/1
f 56/165/2 55/166/2 54/167/2 53/168/2
f 57/169/17 58/170/17 59/171/17 60/172/17
f 64/173/18 63/174/18 62/175/18 61/176/18
f 58/177/3 57/178/3 61/179/3 62/180/3
f 60/181/5 59/182/5 63/183/5 64/184/5
f 58/177/19 62/180/19 67/185/19 65/186/19
f 57/187/20 60/188/20 64/189/20 61/190/20
f 66/191/21 65/192/21 67/193/21 68/194/21
f 59/171/22 58/170/22 65/195/22 66/196/22
f 63/197/23 59/198/23 66/199/23 68/200/23
f 63/174/24 68/201/24 72/202/24 70/203/24
f 70/204/25 72/205/25 76/206/25 74/207/25
f 67/208/24 62/175/24 69/209/24 71/210/24
f 68/201/24 67/208/24 71/210/24 72/202/24
f 62/175/24 63/174/24 70/203/24 69/209/24
f 73/211/26 74/212/26 76/213/26 75/214/26
f 71/215/27 69/216/27 73/217/27 75/218/27
f 72/219/28 71/220/28 75/221/28 76/222/28
f 69/223/29 70/224/29 74/225/29 73/226/29
f 81/227/5 82/228/5 78/229/5 77/230/5
f 82/231/30 83/232/30 79/233/30 78/234/30
f 83/235/3 84/236/3 80/237/3 79/238/3
f 84/239/31 81/240/31 77/241/31 80/242/31
f 77/243/32 78/244/32 79/245/32 80/246/32
f 81/240/33 84/239/33 88/247/33 85/248/33
f 85/248/34 88/247/34 92/249/34 89/250/34
f 84/236/35 83/235/35 87/251/35 88/252/35
f 83/232/36 82/231/36 86/253/36 87/254/36
f 82/228/37 81/227/37 85/255/37 86/256/37
f 92/257/38 91/258/38 90/259/38 89/260/38
f 88/252/39 87/251/39 91/261/39 92/262/39
f 87/254/40 86/253/40 90/263/40 91/264/40
f 86/256/41 85/255/41 89/265/41 90/266/41
f 97/267/5 98/268/5 94/269/5 93/270/5
f 98/271/30 99/272/30 95/273/30 94/274/30
f 99/275/3 100/276/3 96/277/3 95/278/3
f 100/279/31 97/280/31 93/281/31 96/282/31
f 93/283/32 94/284/32 95/285/32 96/286/32
f 97/280/33 100/279/33 104/287/33 101/288/33
f 101/288/34 104/287/34 108/289/34 105/290/34
f 100/276/35 99/275/35 103/291/35 104/292/35
f 99/272/36 98/271/36 102/293/36 103/294/36
f 98/268/37 97/267/37 101/295/37 102/296/37
f 108/297/38 107/298/38 106/299/38 105/300/38
f 104/292/39 103/291/39 107/301/39 108/302/39
f 103/294/40 102/293/40 106/303/40 107/304/40
f 102/296/41 101/295/41 105/305/41 106/306/41
